<?xml version="1.0" encoding="utf-8"?>
<!-- Generator: Adobe Illustrator 22.0.0, SVG Export Plug-In . SVG Version: 6.00 Build 0)  -->
<svg version="1.1" id="Layer_1" xmlns="http://www.w3.org/2000/svg" xmlns:xlink="http://www.w3.org/1999/xlink" x="0px" y="0px"
	 viewBox="0 0 800 570" style="enable-background:new 0 0 800 570;" xml:space="preserve">
<style type="text/css">
	.st0{fill:#F7EA34;}
	.st1{fill:#CE137A;}
	.st2{fill:#FFFFFF;}
</style>
<g>
	<path class="st0" d="M597.2,506.6c-44.3,24-84.4,42.6-128.2,55.5c-15.1,2.8-30.3,4.4-45.5,5.1c-91.2,4.4-183.3-20.5-254.3-70.8
		c-13.2-10.1-25.7-21-37.3-32.7c-46.5-46.8-79.2-106-88.7-171.9c-4.5-31,1.1-56,13.8-76.3c6.4-10.1,14.5-19.1,24.1-27
		c13-8.5,26.3-15.9,40-22.5c13.6-6.6,27.6-12.4,41.7-17.7c13.6-2.9,27-6.2,40.2-10.1C299,106.6,367,14.4,471.2,3.6
		c130.5-16.8,144.7,144.7,182.2,236c4.3,14.6,7.9,29.3,10.7,43.9c13.8,73.3,6.3,146.7-46.1,207.3
		C611.5,496.1,604.6,501.4,597.2,506.6z"/>
	<g>
		<polygon class="st1" points="0,432.7 22.3,130.5 108.5,136.9 93.9,333.8 186.5,322.1 197.4,407.8 		"/>
	</g>
	<g>
		
			<ellipse transform="matrix(0.9939 -0.1103 0.1103 0.9939 -28.2492 30.4832)" class="st1" cx="261.4" cy="270.6" rx="123.6" ry="172.3"/>
	</g>
	<g>
		
			<ellipse transform="matrix(0.9939 -0.1103 0.1103 0.9939 -28.2492 30.4832)" class="st2" cx="261.4" cy="270.6" rx="99.7" ry="139.1"/>
	</g>
	<g>
		<ellipse transform="matrix(0.9939 -0.1103 0.1103 0.9939 -28.3732 30.1054)" class="st0" cx="258" cy="271.5" rx="67" ry="93.4"/>
	</g>
	<g>
		<ellipse transform="matrix(0.9939 -0.1103 0.1103 0.9939 -29.0797 30.2236)" class="st1" cx="258.7" cy="278" rx="39.5" ry="55"/>
	</g>
	<g>
		
			<rect x="231.1" y="4" transform="matrix(0.2768 -0.9609 0.9609 0.2768 63.5779 350.896)" class="st1" width="67.6" height="258.4"/>
	</g>
	<g>
		
			<ellipse transform="matrix(0.1067 -0.9943 0.9943 0.1067 167.502 679.6174)" class="st1" cx="462" cy="246.6" rx="171.4" ry="122.9"/>
	</g>
	<g>
		
			<ellipse transform="matrix(0.1067 -0.9943 0.9943 0.1067 167.502 679.6174)" class="st2" cx="462" cy="246.6" rx="139.3" ry="99.9"/>
	</g>
	<g>
		
			<ellipse transform="matrix(0.1067 -0.9943 0.9943 0.1067 122.3441 712.2015)" class="st0" cx="457.5" cy="288" rx="84.3" ry="60.4"/>
	</g>
	<g>
		
			<ellipse transform="matrix(0.1067 -0.9943 0.9943 0.1067 116.0009 716.7785)" class="st1" cx="456.9" cy="293.8" rx="36.3" ry="26"/>
	</g>
	<polygon class="st1" points="800,314.9 678.5,246.1 748.1,201.5 701.5,128.8 631.7,173.6 625.7,105.9 539.7,113.5 563.5,381.9 
		649.5,374.3 645.3,326.5 757.4,390.1 	"/>
	<g>
		
			<rect x="360.8" y="59.6" transform="matrix(0.8983 -0.4394 0.4394 0.8983 5.0329 208.5378)" class="st1" width="184.3" height="67.6"/>
	</g>
	<g>
		<path class="st1" d="M200.6,564.6c-62.3,1-88.1-29.7-91.1-57.7c-1.7-15.8,3.7-32.2,14.7-44.9c11.4-13.2,28.2-21.8,47.2-24.4
			c27.6-3.6,48.9,1.3,63.2,14.8c18.8,17.7,17.2,43,17.2,44.1c-0.4,6.1-5,11.2-11,12.3l-84.2,15.6c-7.3,1.4-14.4-3.5-15.7-10.8
			c-1.4-7.3,3.5-14.4,10.8-15.7l71.8-13.3c-1.2-4.2-3.4-8.9-7.5-12.7c-10.2-9.4-27.9-9.3-41-7.5c-26.4,3.5-40.4,22.9-38.6,39.6
			c1.9,18,22.9,37.4,75.6,33c76-6.3,89.4-36.9,102.4-66.5c9-20.4,19.1-43.6,51.1-47.1c30.9-3.4,56.6,10.8,74.8,41.3l2.4-41.8
			c0.4-7.3,6.5-12.9,13.8-12.7l92.4,2c4.1,0.1,8,2.1,10.5,5.4c2.5,3.3,3.3,7.5,2.3,11.5c-3.1,12.2-8.3,47.3,5.3,63.5
			c6,7.1,15.5,10,29.2,8.8c17.6-1.5,22.1-9.3,23.5-11.9c11.5-20.3-5.1-63.6-11.8-77.1c-2.3-4.7-1.7-10.3,1.6-14.4
			c3.3-4.1,8.6-5.9,13.7-4.7l50,12.2c7.2,1.8,11.7,9.1,9.9,16.3c-1.8,7.2-9.1,11.7-16.3,9.9l-24.5-6c7.4,22.2,13.8,54.2,0.9,77
			c-10.7,19-30.3,24.4-44.8,25.6c-15.6,1.3-37.4-0.8-52.2-18.4c-11-13.1-16.1-32.1-15.1-56.4c0.2-5.3,0.7-10.3,1.3-14.6l-63.5-1.4
			l-5.5,97c-0.4,7-6,12.5-13,12.7c-0.1,0-0.2,0-0.3,0c-6.9,0.1-12.7-4.9-13.6-11.8c0-0.2-3.3-24.8-14.4-47.7
			c-13.4-27.7-30.9-40-53.6-37.5c-15.8,1.7-20.4,10.8-29.4,31.1c-6.8,15.5-15.3,34.7-33.8,50.7c-21,18.1-50.8,28.4-91.1,31.8
			C209.4,564.3,204.9,564.6,200.6,564.6z"/>
	</g>
</g>
</svg>
